<mxfile host="app.diagrams.net" modified="2023-06-12T06:39:34.951Z" agent="Mozilla/5.0 (Macintosh; Intel Mac OS X 10_15_7) AppleWebKit/537.36 (KHTML, like Gecko) Chrome/114.0.0.0 Safari/537.36" etag="CHA3Of4pNcWMmtGxC6FX" version="21.3.8" type="github">
  <diagram name="第 1 页" id="jFu7EqebkQnxon7LXnsX">
    <mxGraphModel dx="3816" dy="2016" grid="1" gridSize="10" guides="1" tooltips="1" connect="1" arrows="1" fold="1" page="1" pageScale="1" pageWidth="827" pageHeight="1169" math="0" shadow="0">
      <root>
        <mxCell id="0" />
        <mxCell id="1" parent="0" />
        <mxCell id="GX7xwNpgQwxT3VeUL0gz-1" value="&lt;font style=&quot;font-size: 18px;&quot;&gt;行政区划导入&lt;/font&gt;" style="text;html=1;align=center;verticalAlign=middle;resizable=0;points=[];autosize=1;strokeColor=none;fillColor=none;" parent="1" vertex="1">
          <mxGeometry x="65" y="43" width="130" height="40" as="geometry" />
        </mxCell>
        <mxCell id="GX7xwNpgQwxT3VeUL0gz-4" style="edgeStyle=orthogonalEdgeStyle;rounded=0;orthogonalLoop=1;jettySize=auto;html=1;exitX=0.5;exitY=1;exitDx=0;exitDy=0;" parent="1" source="GX7xwNpgQwxT3VeUL0gz-2" target="GX7xwNpgQwxT3VeUL0gz-3" edge="1">
          <mxGeometry relative="1" as="geometry" />
        </mxCell>
        <mxCell id="GX7xwNpgQwxT3VeUL0gz-2" value="导入文件" style="rounded=0;whiteSpace=wrap;html=1;" parent="1" vertex="1">
          <mxGeometry x="160" y="80" width="120" height="60" as="geometry" />
        </mxCell>
        <mxCell id="CSgfzlH5XIyZOQD8t7Sp-3" style="edgeStyle=orthogonalEdgeStyle;rounded=0;orthogonalLoop=1;jettySize=auto;html=1;exitX=0.5;exitY=1;exitDx=0;exitDy=0;entryX=0.5;entryY=0;entryDx=0;entryDy=0;" edge="1" parent="1" source="GX7xwNpgQwxT3VeUL0gz-3" target="CSgfzlH5XIyZOQD8t7Sp-1">
          <mxGeometry relative="1" as="geometry" />
        </mxCell>
        <mxCell id="GX7xwNpgQwxT3VeUL0gz-3" value="读取文件" style="rounded=0;whiteSpace=wrap;html=1;" parent="1" vertex="1">
          <mxGeometry x="160" y="200" width="120" height="60" as="geometry" />
        </mxCell>
        <mxCell id="GX7xwNpgQwxT3VeUL0gz-8" value="是" style="edgeStyle=orthogonalEdgeStyle;rounded=0;orthogonalLoop=1;jettySize=auto;html=1;exitX=0.5;exitY=1;exitDx=0;exitDy=0;entryX=0.5;entryY=0;entryDx=0;entryDy=0;" parent="1" source="GX7xwNpgQwxT3VeUL0gz-5" target="GX7xwNpgQwxT3VeUL0gz-7" edge="1">
          <mxGeometry relative="1" as="geometry" />
        </mxCell>
        <mxCell id="CSgfzlH5XIyZOQD8t7Sp-8" style="edgeStyle=orthogonalEdgeStyle;rounded=0;orthogonalLoop=1;jettySize=auto;html=1;exitX=1;exitY=0.5;exitDx=0;exitDy=0;" edge="1" parent="1" source="GX7xwNpgQwxT3VeUL0gz-5">
          <mxGeometry relative="1" as="geometry">
            <mxPoint x="760" y="610" as="targetPoint" />
          </mxGeometry>
        </mxCell>
        <mxCell id="CSgfzlH5XIyZOQD8t7Sp-9" value="否" style="edgeLabel;html=1;align=center;verticalAlign=middle;resizable=0;points=[];" vertex="1" connectable="0" parent="CSgfzlH5XIyZOQD8t7Sp-8">
          <mxGeometry x="-0.2048" y="1" relative="1" as="geometry">
            <mxPoint as="offset" />
          </mxGeometry>
        </mxCell>
        <mxCell id="GX7xwNpgQwxT3VeUL0gz-5" value="是否存在上一级区划" style="rhombus;whiteSpace=wrap;html=1;" parent="1" vertex="1">
          <mxGeometry x="155" y="570" width="130" height="80" as="geometry" />
        </mxCell>
        <mxCell id="GX7xwNpgQwxT3VeUL0gz-7" value="识别区划类型" style="rounded=0;whiteSpace=wrap;html=1;" parent="1" vertex="1">
          <mxGeometry x="160" y="720" width="120" height="60" as="geometry" />
        </mxCell>
        <mxCell id="GX7xwNpgQwxT3VeUL0gz-17" style="edgeStyle=orthogonalEdgeStyle;rounded=0;orthogonalLoop=1;jettySize=auto;html=1;exitX=0.5;exitY=1;exitDx=0;exitDy=0;" parent="1" source="GX7xwNpgQwxT3VeUL0gz-7" target="GX7xwNpgQwxT3VeUL0gz-16" edge="1">
          <mxGeometry relative="1" as="geometry">
            <mxPoint x="220" y="810" as="sourcePoint" />
          </mxGeometry>
        </mxCell>
        <mxCell id="GX7xwNpgQwxT3VeUL0gz-30" value="否" style="edgeStyle=orthogonalEdgeStyle;rounded=0;orthogonalLoop=1;jettySize=auto;html=1;exitX=1;exitY=0.5;exitDx=0;exitDy=0;entryX=0.6;entryY=0.017;entryDx=0;entryDy=0;entryPerimeter=0;" parent="1" source="CSgfzlH5XIyZOQD8t7Sp-4" edge="1" target="GX7xwNpgQwxT3VeUL0gz-39">
          <mxGeometry relative="1" as="geometry">
            <mxPoint x="760" y="540" as="targetPoint" />
            <mxPoint x="270" y="439.5" as="sourcePoint" />
            <Array as="points">
              <mxPoint x="761" y="470" />
            </Array>
          </mxGeometry>
        </mxCell>
        <mxCell id="GX7xwNpgQwxT3VeUL0gz-24" style="edgeStyle=orthogonalEdgeStyle;rounded=0;orthogonalLoop=1;jettySize=auto;html=1;entryX=0.5;entryY=0;entryDx=0;entryDy=0;" parent="1" source="GX7xwNpgQwxT3VeUL0gz-16" target="GX7xwNpgQwxT3VeUL0gz-21" edge="1">
          <mxGeometry relative="1" as="geometry" />
        </mxCell>
        <mxCell id="GX7xwNpgQwxT3VeUL0gz-16" value="校验excel中数据与数据库数据" style="rounded=0;whiteSpace=wrap;html=1;" parent="1" vertex="1">
          <mxGeometry x="160" y="870" width="120" height="60" as="geometry" />
        </mxCell>
        <mxCell id="GX7xwNpgQwxT3VeUL0gz-26" style="edgeStyle=orthogonalEdgeStyle;rounded=0;orthogonalLoop=1;jettySize=auto;html=1;entryX=0.5;entryY=0;entryDx=0;entryDy=0;" parent="1" source="GX7xwNpgQwxT3VeUL0gz-18" target="GX7xwNpgQwxT3VeUL0gz-35" edge="1">
          <mxGeometry relative="1" as="geometry">
            <mxPoint x="410" y="1130" as="targetPoint" />
            <Array as="points" />
          </mxGeometry>
        </mxCell>
        <mxCell id="GX7xwNpgQwxT3VeUL0gz-27" value="否" style="edgeLabel;html=1;align=center;verticalAlign=middle;resizable=0;points=[];" parent="GX7xwNpgQwxT3VeUL0gz-26" vertex="1" connectable="0">
          <mxGeometry x="-0.3" y="1" relative="1" as="geometry">
            <mxPoint as="offset" />
          </mxGeometry>
        </mxCell>
        <mxCell id="GX7xwNpgQwxT3VeUL0gz-36" value="是" style="edgeStyle=orthogonalEdgeStyle;rounded=0;orthogonalLoop=1;jettySize=auto;html=1;" parent="1" source="GX7xwNpgQwxT3VeUL0gz-18" edge="1">
          <mxGeometry relative="1" as="geometry">
            <mxPoint x="760" y="1010" as="targetPoint" />
          </mxGeometry>
        </mxCell>
        <mxCell id="GX7xwNpgQwxT3VeUL0gz-18" value="名称、编码各自对应数据库中不同数据" style="rhombus;whiteSpace=wrap;html=1;" parent="1" vertex="1">
          <mxGeometry x="370" y="970" width="160" height="80" as="geometry" />
        </mxCell>
        <mxCell id="GX7xwNpgQwxT3VeUL0gz-23" value="是" style="edgeStyle=orthogonalEdgeStyle;rounded=0;orthogonalLoop=1;jettySize=auto;html=1;entryX=0.5;entryY=0;entryDx=0;entryDy=0;" parent="1" source="GX7xwNpgQwxT3VeUL0gz-21" target="GX7xwNpgQwxT3VeUL0gz-22" edge="1">
          <mxGeometry relative="1" as="geometry" />
        </mxCell>
        <mxCell id="GX7xwNpgQwxT3VeUL0gz-25" value="否" style="edgeStyle=orthogonalEdgeStyle;rounded=0;orthogonalLoop=1;jettySize=auto;html=1;" parent="1" source="GX7xwNpgQwxT3VeUL0gz-21" target="GX7xwNpgQwxT3VeUL0gz-18" edge="1">
          <mxGeometry relative="1" as="geometry" />
        </mxCell>
        <mxCell id="GX7xwNpgQwxT3VeUL0gz-21" value="名称和编码是否都不存在" style="rhombus;whiteSpace=wrap;html=1;" parent="1" vertex="1">
          <mxGeometry x="150" y="970" width="140" height="80" as="geometry" />
        </mxCell>
        <mxCell id="GX7xwNpgQwxT3VeUL0gz-44" style="edgeStyle=orthogonalEdgeStyle;rounded=0;orthogonalLoop=1;jettySize=auto;html=1;entryX=0.5;entryY=0;entryDx=0;entryDy=0;" parent="1" source="GX7xwNpgQwxT3VeUL0gz-22" target="GX7xwNpgQwxT3VeUL0gz-41" edge="1">
          <mxGeometry relative="1" as="geometry">
            <Array as="points">
              <mxPoint x="220" y="1260" />
              <mxPoint x="450" y="1260" />
            </Array>
          </mxGeometry>
        </mxCell>
        <mxCell id="GX7xwNpgQwxT3VeUL0gz-22" value="记录新增行政区划列表" style="rounded=0;whiteSpace=wrap;html=1;" parent="1" vertex="1">
          <mxGeometry x="160" y="1150" width="120" height="60" as="geometry" />
        </mxCell>
        <mxCell id="GX7xwNpgQwxT3VeUL0gz-31" value="错误信息：区划名称与区&lt;br&gt;划编码存在数据冲突" style="shape=note;whiteSpace=wrap;html=1;backgroundOutline=1;darkOpacity=0.05;" parent="1" vertex="1">
          <mxGeometry x="390" y="390" width="170" height="40" as="geometry" />
        </mxCell>
        <mxCell id="GX7xwNpgQwxT3VeUL0gz-34" value="" style="endArrow=classic;html=1;rounded=0;exitX=0;exitY=1;exitDx=0;exitDy=0;exitPerimeter=0;" parent="1" source="GX7xwNpgQwxT3VeUL0gz-31" edge="1">
          <mxGeometry width="50" height="50" relative="1" as="geometry">
            <mxPoint x="380" y="670" as="sourcePoint" />
            <mxPoint x="370" y="450" as="targetPoint" />
          </mxGeometry>
        </mxCell>
        <mxCell id="CSgfzlH5XIyZOQD8t7Sp-10" value="" style="edgeStyle=orthogonalEdgeStyle;rounded=0;orthogonalLoop=1;jettySize=auto;html=1;" edge="1" parent="1" source="GX7xwNpgQwxT3VeUL0gz-35" target="GX7xwNpgQwxT3VeUL0gz-41">
          <mxGeometry relative="1" as="geometry" />
        </mxCell>
        <mxCell id="GX7xwNpgQwxT3VeUL0gz-35" value="记录待更新行政区划列表" style="rounded=0;whiteSpace=wrap;html=1;" parent="1" vertex="1">
          <mxGeometry x="390" y="1150" width="120" height="60" as="geometry" />
        </mxCell>
        <mxCell id="GX7xwNpgQwxT3VeUL0gz-37" value="错误信息：区划名称与区&lt;br&gt;划编码各存在不同数据" style="shape=note;whiteSpace=wrap;html=1;backgroundOutline=1;darkOpacity=0.05;" parent="1" vertex="1">
          <mxGeometry x="560" y="930" width="170" height="40" as="geometry" />
        </mxCell>
        <mxCell id="GX7xwNpgQwxT3VeUL0gz-38" value="" style="endArrow=classic;html=1;rounded=0;exitX=0;exitY=1;exitDx=0;exitDy=0;exitPerimeter=0;" parent="1" source="GX7xwNpgQwxT3VeUL0gz-37" edge="1">
          <mxGeometry width="50" height="50" relative="1" as="geometry">
            <mxPoint x="510" y="970" as="sourcePoint" />
            <mxPoint x="540" y="1000" as="targetPoint" />
          </mxGeometry>
        </mxCell>
        <mxCell id="CSgfzlH5XIyZOQD8t7Sp-11" style="edgeStyle=orthogonalEdgeStyle;rounded=0;orthogonalLoop=1;jettySize=auto;html=1;" edge="1" parent="1" source="GX7xwNpgQwxT3VeUL0gz-39" target="GX7xwNpgQwxT3VeUL0gz-41">
          <mxGeometry relative="1" as="geometry">
            <Array as="points">
              <mxPoint x="750" y="1260" />
              <mxPoint x="450" y="1260" />
            </Array>
          </mxGeometry>
        </mxCell>
        <mxCell id="GX7xwNpgQwxT3VeUL0gz-39" value="收集所有错误数据及原因列表" style="rounded=0;whiteSpace=wrap;html=1;" parent="1" vertex="1">
          <mxGeometry x="690" y="1150" width="120" height="60" as="geometry" />
        </mxCell>
        <mxCell id="GX7xwNpgQwxT3VeUL0gz-45" style="edgeStyle=orthogonalEdgeStyle;rounded=0;orthogonalLoop=1;jettySize=auto;html=1;exitX=0.5;exitY=1;exitDx=0;exitDy=0;entryX=0.5;entryY=0;entryDx=0;entryDy=0;" parent="1" source="GX7xwNpgQwxT3VeUL0gz-41" edge="1" target="GX7xwNpgQwxT3VeUL0gz-47">
          <mxGeometry relative="1" as="geometry">
            <mxPoint x="410" y="1490" as="targetPoint" />
          </mxGeometry>
        </mxCell>
        <mxCell id="GX7xwNpgQwxT3VeUL0gz-46" value="是" style="edgeLabel;html=1;align=center;verticalAlign=middle;resizable=0;points=[];" parent="GX7xwNpgQwxT3VeUL0gz-45" vertex="1" connectable="0">
          <mxGeometry x="-0.2583" y="-2" relative="1" as="geometry">
            <mxPoint as="offset" />
          </mxGeometry>
        </mxCell>
        <mxCell id="GX7xwNpgQwxT3VeUL0gz-48" style="edgeStyle=orthogonalEdgeStyle;rounded=0;orthogonalLoop=1;jettySize=auto;html=1;exitX=1;exitY=0.5;exitDx=0;exitDy=0;entryX=0.574;entryY=-0.039;entryDx=0;entryDy=0;entryPerimeter=0;" parent="1" source="GX7xwNpgQwxT3VeUL0gz-41" target="GX7xwNpgQwxT3VeUL0gz-50" edge="1">
          <mxGeometry relative="1" as="geometry">
            <mxPoint x="670" y="1339.888888888889" as="targetPoint" />
          </mxGeometry>
        </mxCell>
        <mxCell id="GX7xwNpgQwxT3VeUL0gz-49" value="否" style="edgeLabel;html=1;align=center;verticalAlign=middle;resizable=0;points=[];" parent="GX7xwNpgQwxT3VeUL0gz-48" vertex="1" connectable="0">
          <mxGeometry x="-0.244" y="-3" relative="1" as="geometry">
            <mxPoint as="offset" />
          </mxGeometry>
        </mxCell>
        <mxCell id="GX7xwNpgQwxT3VeUL0gz-41" value="错误列表是否为空" style="rhombus;whiteSpace=wrap;html=1;" parent="1" vertex="1">
          <mxGeometry x="375" y="1300" width="150" height="80" as="geometry" />
        </mxCell>
        <mxCell id="GX7xwNpgQwxT3VeUL0gz-52" style="edgeStyle=orthogonalEdgeStyle;rounded=0;orthogonalLoop=1;jettySize=auto;html=1;entryX=0.5;entryY=0;entryDx=0;entryDy=0;" parent="1" source="GX7xwNpgQwxT3VeUL0gz-47" target="GX7xwNpgQwxT3VeUL0gz-51" edge="1">
          <mxGeometry relative="1" as="geometry" />
        </mxCell>
        <mxCell id="GX7xwNpgQwxT3VeUL0gz-47" value="进行新增、编辑操作" style="rounded=0;whiteSpace=wrap;html=1;" parent="1" vertex="1">
          <mxGeometry x="390" y="1490" width="120" height="60" as="geometry" />
        </mxCell>
        <mxCell id="CSgfzlH5XIyZOQD8t7Sp-12" style="edgeStyle=orthogonalEdgeStyle;rounded=0;orthogonalLoop=1;jettySize=auto;html=1;entryX=1;entryY=0.5;entryDx=0;entryDy=0;" edge="1" parent="1" source="GX7xwNpgQwxT3VeUL0gz-50" target="GX7xwNpgQwxT3VeUL0gz-51">
          <mxGeometry relative="1" as="geometry">
            <Array as="points">
              <mxPoint x="750" y="1680" />
            </Array>
          </mxGeometry>
        </mxCell>
        <mxCell id="GX7xwNpgQwxT3VeUL0gz-50" value="返回错误数据到前端" style="rounded=0;whiteSpace=wrap;html=1;" parent="1" vertex="1">
          <mxGeometry x="680" y="1490" width="120" height="60" as="geometry" />
        </mxCell>
        <mxCell id="GX7xwNpgQwxT3VeUL0gz-51" value="结束" style="ellipse;whiteSpace=wrap;html=1;" parent="1" vertex="1">
          <mxGeometry x="390" y="1640" width="120" height="80" as="geometry" />
        </mxCell>
        <mxCell id="CSgfzlH5XIyZOQD8t7Sp-6" style="edgeStyle=orthogonalEdgeStyle;rounded=0;orthogonalLoop=1;jettySize=auto;html=1;exitX=0.5;exitY=1;exitDx=0;exitDy=0;entryX=0.5;entryY=0;entryDx=0;entryDy=0;" edge="1" parent="1" source="CSgfzlH5XIyZOQD8t7Sp-1" target="CSgfzlH5XIyZOQD8t7Sp-4">
          <mxGeometry relative="1" as="geometry" />
        </mxCell>
        <mxCell id="CSgfzlH5XIyZOQD8t7Sp-1" value="校验excel中同一级编码与名称重复性" style="rounded=0;whiteSpace=wrap;html=1;" vertex="1" parent="1">
          <mxGeometry x="160" y="300" width="120" height="60" as="geometry" />
        </mxCell>
        <mxCell id="CSgfzlH5XIyZOQD8t7Sp-7" value="" style="edgeStyle=orthogonalEdgeStyle;rounded=0;orthogonalLoop=1;jettySize=auto;html=1;" edge="1" parent="1" source="CSgfzlH5XIyZOQD8t7Sp-4" target="GX7xwNpgQwxT3VeUL0gz-5">
          <mxGeometry relative="1" as="geometry" />
        </mxCell>
        <mxCell id="CSgfzlH5XIyZOQD8t7Sp-4" value="是否重复" style="rhombus;whiteSpace=wrap;html=1;" vertex="1" parent="1">
          <mxGeometry x="180" y="430" width="80" height="80" as="geometry" />
        </mxCell>
      </root>
    </mxGraphModel>
  </diagram>
</mxfile>
